<svg width="21" height="22" viewBox="0 0 21 22" fill="none" xmlns="http://www.w3.org/2000/svg">
<path d="M19.0938 2.90625H11.2812V1.34375C11.2812 1.13655 11.1989 0.937836 11.0524 0.791323C10.9059 0.64481 10.7072 0.5625 10.5 0.5625C10.2928 0.5625 10.0941 0.64481 9.94757 0.791323C9.80106 0.937836 9.71875 1.13655 9.71875 1.34375V2.90625H1.90625C1.49185 2.90625 1.09442 3.07087 0.801396 3.3639C0.50837 3.65692 0.34375 4.05435 0.34375 4.46875V16.1875C0.34375 16.6019 0.50837 16.9993 0.801396 17.2924C1.09442 17.5854 1.49185 17.75 1.90625 17.75H5.75391L3.64453 20.3867C3.55277 20.5013 3.49516 20.6395 3.4783 20.7853C3.46144 20.9312 3.48603 21.0788 3.54923 21.2113C3.61243 21.3438 3.71169 21.4559 3.83563 21.5346C3.95958 21.6132 4.10319 21.6554 4.25 21.6562C4.36661 21.657 4.48185 21.631 4.58682 21.5802C4.6918 21.5294 4.78371 21.4552 4.85547 21.3633L7.74609 17.75H13.2539L16.1445 21.3633C16.2163 21.4552 16.3082 21.5294 16.4132 21.5802C16.5182 21.631 16.6334 21.657 16.75 21.6562C16.8968 21.6554 17.0404 21.6132 17.1644 21.5346C17.2883 21.4559 17.3876 21.3438 17.4508 21.2113C17.514 21.0788 17.5386 20.9312 17.5217 20.7853C17.5048 20.6395 17.4472 20.5013 17.3555 20.3867L15.2461 17.75H19.0938C19.5082 17.75 19.9056 17.5854 20.1986 17.2924C20.4916 16.9993 20.6562 16.6019 20.6562 16.1875V4.46875C20.6562 4.05435 20.4916 3.65692 20.1986 3.3639C19.9056 3.07087 19.5082 2.90625 19.0938 2.90625ZM8.15625 13.0625C8.15625 13.2697 8.07394 13.4684 7.92743 13.6149C7.78091 13.7614 7.5822 13.8437 7.375 13.8437C7.1678 13.8437 6.96909 13.7614 6.82257 13.6149C6.67606 13.4684 6.59375 13.2697 6.59375 13.0625V10.7187C6.59375 10.5115 6.67606 10.3128 6.82257 10.1663C6.96909 10.0198 7.1678 9.9375 7.375 9.9375C7.5822 9.9375 7.78091 10.0198 7.92743 10.1663C8.07394 10.3128 8.15625 10.5115 8.15625 10.7187V13.0625ZM11.2812 13.0625C11.2812 13.2697 11.1989 13.4684 11.0524 13.6149C10.9059 13.7614 10.7072 13.8437 10.5 13.8437C10.2928 13.8437 10.0941 13.7614 9.94757 13.6149C9.80106 13.4684 9.71875 13.2697 9.71875 13.0625V9.15625C9.71875 8.94905 9.80106 8.75033 9.94757 8.60382C10.0941 8.45731 10.2928 8.375 10.5 8.375C10.7072 8.375 10.9059 8.45731 11.0524 8.60382C11.1989 8.75033 11.2812 8.94905 11.2812 9.15625V13.0625ZM14.4062 13.0625C14.4062 13.2697 14.3239 13.4684 14.1774 13.6149C14.0309 13.7614 13.8322 13.8437 13.625 13.8437C13.4178 13.8437 13.2191 13.7614 13.0726 13.6149C12.9261 13.4684 12.8438 13.2697 12.8438 13.0625V7.59375C12.8438 7.38655 12.9261 7.18784 13.0726 7.04132C13.2191 6.89481 13.4178 6.8125 13.625 6.8125C13.8322 6.8125 14.0309 6.89481 14.1774 7.04132C14.3239 7.18784 14.4062 7.38655 14.4062 7.59375V13.0625Z" fill="currentColor"/>
</svg>
