<svg width="17" height="17" viewBox="0 0 17 17" fill="none" xmlns="http://www.w3.org/2000/svg">
<path d="M8.5 0.780884C6.97338 0.780884 5.48104 1.23358 4.2117 2.08173C2.94235 2.92987 1.95302 4.13538 1.36881 5.5458C0.784594 6.95621 0.631737 8.5082 0.929567 10.0055C1.2274 11.5028 1.96254 12.8781 3.04202 13.9576C4.12151 15.0371 5.49686 15.7722 6.99415 16.0701C8.49144 16.3679 10.0434 16.215 11.4538 15.6308C12.8643 15.0466 14.0698 14.0573 14.9179 12.7879C15.7661 11.5186 16.2188 10.0263 16.2188 8.49963C16.2148 6.4537 15.4003 4.49268 13.9536 3.04599C12.507 1.59929 10.5459 0.784807 8.5 0.780884ZM9.39063 12.0621H9.09375V12.6559C9.09375 12.8134 9.0312 12.9644 8.91985 13.0757C8.8085 13.1871 8.65747 13.2496 8.5 13.2496C8.34253 13.2496 8.19151 13.1871 8.08016 13.0757C7.96881 12.9644 7.90625 12.8134 7.90625 12.6559V12.0621H6.71875C6.56128 12.0621 6.41026 11.9996 6.29891 11.8882C6.18756 11.7769 6.125 11.6259 6.125 11.4684C6.125 11.3109 6.18756 11.1599 6.29891 11.0485C6.41026 10.9372 6.56128 10.8746 6.71875 10.8746H9.39063C9.62684 10.8746 9.85337 10.7808 10.0204 10.6138C10.1874 10.4467 10.2813 10.2202 10.2813 9.98401C10.2813 9.7478 10.1874 9.52127 10.0204 9.35424C9.85337 9.18722 9.62684 9.09338 9.39063 9.09338H7.60938C7.05822 9.09338 6.52965 8.87444 6.13992 8.48471C5.7502 8.09499 5.53125 7.56641 5.53125 7.01526C5.53125 6.46411 5.7502 5.93553 6.13992 5.5458C6.52965 5.15608 7.05822 4.93713 7.60938 4.93713H7.90625V4.34338C7.90625 4.18591 7.96881 4.03489 8.08016 3.92354C8.19151 3.81219 8.34253 3.74963 8.5 3.74963C8.65747 3.74963 8.8085 3.81219 8.91985 3.92354C9.0312 4.03489 9.09375 4.18591 9.09375 4.34338V4.93713H10.2813C10.4387 4.93713 10.5897 4.99969 10.7011 5.11104C10.8124 5.22239 10.875 5.37341 10.875 5.53088C10.875 5.68836 10.8124 5.83938 10.7011 5.95073C10.5897 6.06208 10.4387 6.12463 10.2813 6.12463H7.60938C7.37317 6.12463 7.14664 6.21847 6.97961 6.38549C6.81259 6.55252 6.71875 6.77905 6.71875 7.01526C6.71875 7.25147 6.81259 7.478 6.97961 7.64503C7.14664 7.81205 7.37317 7.90588 7.60938 7.90588H9.39063C9.94178 7.90588 10.4704 8.12483 10.8601 8.51455C11.2498 8.90427 11.4688 9.43285 11.4688 9.98401C11.4688 10.5352 11.2498 11.0637 10.8601 11.4535C10.4704 11.8432 9.94178 12.0621 9.39063 12.0621Z" fill="#F09F20"/>
</svg>
