<svg width="18" height="18" viewBox="0 0 18 18" fill="none" xmlns="http://www.w3.org/2000/svg">
<g clip-path="url(#clip0_199_1215)">
<path d="M7.10526 16.1049C9.98299 16.1049 12.3158 13.7721 12.3158 10.8943C12.3158 8.0166 9.98299 5.6838 7.10526 5.6838C4.22754 5.6838 1.89474 8.0166 1.89474 10.8943C1.89474 13.7721 4.22754 16.1049 7.10526 16.1049ZM7.10526 17.9996C3.18126 17.9996 0 14.8183 0 10.8943C0 6.97033 3.18126 3.78906 7.10526 3.78906C11.0293 3.78906 14.2105 6.97033 14.2105 10.8943C14.2105 14.8183 11.0293 17.9996 7.10526 17.9996Z" fill="#FBCC5C"/>
<path d="M10.8943 12.3154C13.7721 12.3154 16.1049 9.98262 16.1049 7.1049C16.1049 4.22717 13.7721 1.89437 10.8943 1.89437C8.0166 1.89437 5.6838 4.22717 5.6838 7.1049C5.6838 9.98262 8.0166 12.3154 10.8943 12.3154ZM10.8943 14.2102C6.97033 14.2102 3.78906 11.0289 3.78906 7.1049C3.78906 3.1809 6.97033 -0.000366211 10.8943 -0.000366211C14.8183 -0.000366211 17.9996 3.1809 17.9996 7.1049C17.9996 11.0289 14.8183 14.2102 10.8943 14.2102Z" fill="#35D07F"/>
<path d="M11.1291 14.2101C11.6217 13.6131 11.9749 12.9136 12.1627 12.1627C12.9136 11.9749 13.6131 11.6219 14.2101 11.1293C14.1829 11.9989 13.9956 12.8561 13.6576 13.6578C12.8559 13.9957 11.9987 14.183 11.1291 14.2101ZM5.83652 5.83652C5.08561 6.02425 4.3861 6.37731 3.78906 6.8699C3.81629 6.00027 4.00358 5.14311 4.34157 4.34138C5.14331 4.00346 6.00047 3.81622 6.87009 3.78906C6.37744 4.38609 6.02432 5.0856 5.83652 5.83652Z" fill="#5EA33B"/>
</g>
<defs>
<clipPath id="clip0_199_1215">
<rect width="18" height="18" fill="white" transform="translate(0 -0.000366211)"/>
</clipPath>
</defs>
</svg>
