<svg width="16" height="14" viewBox="0 0 16 14" fill="none" xmlns="http://www.w3.org/2000/svg">
<path d="M8.94348 6.99991L15.1131 1.30226C15.2317 1.16868 15.2922 0.999097 15.2831 0.826499C15.2739 0.6539 15.1956 0.490625 15.0635 0.368432C14.9314 0.24624 14.7549 0.173866 14.5683 0.165389C14.3816 0.156912 14.1983 0.212938 14.0539 0.322569L7.89353 6.02882L1.73319 0.322569C1.58876 0.212938 1.40541 0.156912 1.2188 0.165389C1.03218 0.173866 0.855647 0.24624 0.723531 0.368432C0.591416 0.490625 0.513165 0.6539 0.504 0.826499C0.494834 0.999097 0.55541 1.16868 0.673943 1.30226L6.84358 6.99991L0.673943 12.6976C0.53436 12.8279 0.456055 13.004 0.456055 13.1874C0.456055 13.3709 0.53436 13.5469 0.673943 13.6773C0.816023 13.8043 1.00593 13.8753 1.20357 13.8753C1.4012 13.8753 1.59111 13.8043 1.73319 13.6773L7.89353 7.97101L14.0539 13.6773C14.196 13.8043 14.3859 13.8753 14.5835 13.8753C14.7811 13.8753 14.971 13.8043 15.1131 13.6773C15.2527 13.5469 15.331 13.3709 15.331 13.1874C15.331 13.004 15.2527 12.8279 15.1131 12.6976L8.94348 6.99991Z" fill="black"/>
</svg>
