<svg width="13" height="13" viewBox="0 0 13 13" fill="none" xmlns="http://www.w3.org/2000/svg">
<path d="M11.6562 0.875H4.15625C4.03193 0.875 3.9127 0.924386 3.82479 1.01229C3.73689 1.1002 3.6875 1.21943 3.6875 1.34375V3.6875H1.34375C1.21943 3.6875 1.1002 3.73689 1.01229 3.82479C0.924386 3.9127 0.875 4.03193 0.875 4.15625V11.6562C0.875 11.7806 0.924386 11.8998 1.01229 11.9877C1.1002 12.0756 1.21943 12.125 1.34375 12.125H8.84375C8.96807 12.125 9.0873 12.0756 9.17521 11.9877C9.26311 11.8998 9.3125 11.7806 9.3125 11.6562V9.3125H11.6562C11.7806 9.3125 11.8998 9.26311 11.9877 9.17521C12.0756 9.0873 12.125 8.96807 12.125 8.84375V1.34375C12.125 1.21943 12.0756 1.1002 11.9877 1.01229C11.8998 0.924386 11.7806 0.875 11.6562 0.875ZM11.1875 8.375H9.3125V4.15625C9.3125 4.03193 9.26311 3.9127 9.17521 3.82479C9.0873 3.73689 8.96807 3.6875 8.84375 3.6875H4.625V1.8125H11.1875V8.375Z" fill="currentColor"/>
</svg>
