
<svg width="19" height="19" viewBox="0 0 19 19" fill="none" xmlns="http://www.w3.org/2000/svg">
<path d="M1.16667 10.5417H7.41667C7.98958 10.5417 8.45833 10.0729 8.45833 9.5V1.16667C8.45833 0.59375 7.98958 0.125 7.41667 0.125H1.16667C0.59375 0.125 0.125 0.59375 0.125 1.16667V9.5C0.125 10.0729 0.59375 10.5417 1.16667 10.5417ZM1.16667 18.875H7.41667C7.98958 18.875 8.45833 18.4062 8.45833 17.8333V13.6667C8.45833 13.0937 7.98958 12.625 7.41667 12.625H1.16667C0.59375 12.625 0.125 13.0937 0.125 13.6667V17.8333C0.125 18.4062 0.59375 18.875 1.16667 18.875ZM11.5833 18.875H17.8333C18.4062 18.875 18.875 18.4062 18.875 17.8333V9.5C18.875 8.92708 18.4062 8.45833 17.8333 8.45833H11.5833C11.0104 8.45833 10.5417 8.92708 10.5417 9.5V17.8333C10.5417 18.4062 11.0104 18.875 11.5833 18.875ZM10.5417 1.16667V5.33333C10.5417 5.90625 11.0104 6.375 11.5833 6.375H17.8333C18.4062 6.375 18.875 5.90625 18.875 5.33333V1.16667C18.875 0.59375 18.4062 0.125 17.8333 0.125H11.5833C11.0104 0.125 10.5417 0.59375 10.5417 1.16667Z" fill="currentColor"/>
</svg>
