<svg width="18" height="18" viewBox="0 0 18 18" fill="none" xmlns="http://www.w3.org/2000/svg">
<path d="M5.22422 6.02578C5.13452 5.91649 5.08868 5.77774 5.09562 5.63653C5.10255 5.49531 5.16177 5.36172 5.26174 5.26174C5.36172 5.16177 5.49531 5.10255 5.63653 5.09562C5.77774 5.08868 5.91649 5.13452 6.02578 5.22422L8.4375 7.64297V1.6875C8.4375 1.53832 8.49676 1.39524 8.60225 1.28975C8.70774 1.18426 8.85082 1.125 9 1.125C9.14918 1.125 9.29226 1.18426 9.39775 1.28975C9.50324 1.39524 9.5625 1.53832 9.5625 1.6875V7.64297L11.9742 5.22422C12.0835 5.13452 12.2223 5.08868 12.3635 5.09562C12.5047 5.10255 12.6383 5.16177 12.7383 5.26174C12.8382 5.36172 12.8974 5.49531 12.9044 5.63653C12.9113 5.77774 12.8655 5.91649 12.7758 6.02578L9.40078 9.40078C9.29326 9.50474 9.14956 9.56286 9 9.56286C8.85044 9.56286 8.70674 9.50474 8.59922 9.40078L5.22422 6.02578ZM16.875 9.5625V14.0625C16.875 14.3609 16.7565 14.647 16.5455 14.858C16.3345 15.069 16.0484 15.1875 15.75 15.1875H2.25C1.95163 15.1875 1.66548 15.069 1.4545 14.858C1.24353 14.647 1.125 14.3609 1.125 14.0625V9.5625C1.125 9.26413 1.24353 8.97798 1.4545 8.767C1.66548 8.55603 1.95163 8.4375 2.25 8.4375H5.93438C5.97136 8.43632 6.00816 8.44326 6.04218 8.45784C6.07619 8.47241 6.1066 8.49427 6.13125 8.52187L7.80469 10.1953C8.12223 10.5113 8.552 10.6887 9 10.6887C9.448 10.6887 9.87776 10.5113 10.1953 10.1953L11.8688 8.52187C11.8934 8.49427 11.9238 8.47241 11.9578 8.45784C11.9918 8.44326 12.0286 8.43632 12.0656 8.4375H15.75C16.0484 8.4375 16.3345 8.55603 16.5455 8.767C16.7565 8.97798 16.875 9.26413 16.875 9.5625ZM14.0625 11.8125C14.0625 11.6456 14.013 11.4825 13.9203 11.3437C13.8276 11.205 13.6958 11.0968 13.5416 11.033C13.3875 10.9691 13.2178 10.9524 13.0541 10.985C12.8905 11.0175 12.7401 11.0979 12.6221 11.2159C12.5041 11.3339 12.4238 11.4842 12.3912 11.6479C12.3587 11.8116 12.3754 11.9812 12.4392 12.1354C12.5031 12.2896 12.6112 12.4213 12.75 12.5141C12.8887 12.6068 13.0519 12.6562 13.2188 12.6562C13.4425 12.6562 13.6571 12.5674 13.8154 12.4091C13.9736 12.2509 14.0625 12.0363 14.0625 11.8125Z" fill="black"/>
</svg>
