<svg width="14" height="18" viewBox="0 0 14 18" fill="none" xmlns="http://www.w3.org/2000/svg">
<path d="M13.6953 5.4297L9.32031 1.0547C9.20125 0.938621 9.04128 0.874073 8.875 0.87501H1.375C1.04348 0.87501 0.725537 1.00671 0.491116 1.24113C0.256696 1.47555 0.125 1.79349 0.125 2.12501V15.875C0.125 16.2065 0.256696 16.5245 0.491116 16.7589C0.725537 16.9933 1.04348 17.125 1.375 17.125H12.625C12.9565 17.125 13.2745 16.9933 13.5089 16.7589C13.7433 16.5245 13.875 16.2065 13.875 15.875V5.87501C13.8759 5.70873 13.8114 5.54876 13.6953 5.4297ZM9.63281 11.6328L7.44531 13.8203C7.32585 13.9358 7.16618 14.0004 7 14.0004C6.83382 14.0004 6.67415 13.9358 6.55469 13.8203L4.36719 11.6328C4.26752 11.5114 4.21659 11.3572 4.2243 11.2003C4.232 11.0434 4.2978 10.895 4.40888 10.7839C4.51997 10.6728 4.6684 10.607 4.82531 10.5993C4.98221 10.5916 5.13638 10.6425 5.25781 10.7422L6.375 11.8672V8.37501C6.375 8.20925 6.44085 8.05028 6.55806 7.93307C6.67527 7.81586 6.83424 7.75001 7 7.75001C7.16576 7.75001 7.32473 7.81586 7.44194 7.93307C7.55915 8.05028 7.625 8.20925 7.625 8.37501V11.8672L8.74219 10.7422C8.86362 10.6425 9.01779 10.5916 9.17469 10.5993C9.3316 10.607 9.48003 10.6728 9.59112 10.7839C9.7022 10.895 9.768 11.0434 9.7757 11.2003C9.78341 11.3572 9.73248 11.5114 9.63281 11.6328ZM8.875 5.87501V2.43751L12.3125 5.87501H8.875Z" fill="#6B88EF"/>
</svg>
