<svg width="16" height="16" viewBox="0 0 16 16" fill="none" xmlns="http://www.w3.org/2000/svg">
<path d="M8 0.6875C6.55373 0.6875 5.13993 1.11637 3.9374 1.91988C2.73486 2.72339 1.7976 3.86544 1.24413 5.20163C0.690668 6.53781 0.545857 8.00811 0.828011 9.4266C1.11017 10.8451 1.80661 12.148 2.82928 13.1707C3.85196 14.1934 5.15492 14.8898 6.57341 15.172C7.99189 15.4541 9.46219 15.3093 10.7984 14.7559C12.1346 14.2024 13.2766 13.2651 14.0801 12.0626C14.8836 10.8601 15.3125 9.44628 15.3125 8C15.3088 6.06175 14.5372 4.20394 13.1666 2.83339C11.7961 1.46283 9.93826 0.691217 8 0.6875ZM7.4375 4.625C7.4375 4.47582 7.49677 4.33274 7.60226 4.22725C7.70775 4.12176 7.85082 4.0625 8 4.0625C8.14919 4.0625 8.29226 4.12176 8.39775 4.22725C8.50324 4.33274 8.5625 4.47582 8.5625 4.625V8.5625C8.5625 8.71168 8.50324 8.85476 8.39775 8.96025C8.29226 9.06574 8.14919 9.125 8 9.125C7.85082 9.125 7.70775 9.06574 7.60226 8.96025C7.49677 8.85476 7.4375 8.71168 7.4375 8.5625V4.625ZM8 11.9375C7.83313 11.9375 7.66999 11.888 7.53124 11.7953C7.39249 11.7026 7.28434 11.5708 7.22048 11.4166C7.15662 11.2625 7.13991 11.0928 7.17247 10.9291C7.20502 10.7655 7.28538 10.6151 7.40338 10.4971C7.52138 10.3791 7.67172 10.2988 7.8354 10.2662C7.99907 10.2337 8.16872 10.2504 8.32289 10.3142C8.47707 10.3781 8.60884 10.4862 8.70156 10.625C8.79427 10.7637 8.84375 10.9269 8.84375 11.0938C8.84375 11.3175 8.75486 11.5321 8.59662 11.6904C8.43839 11.8486 8.22378 11.9375 8 11.9375Z" fill="#F09F20" fill-opacity="0.7"/>
</svg>
