<svg width="11" height="11" viewBox="0 0 11 11" fill="none" xmlns="http://www.w3.org/2000/svg">
<path d="M9.71006 6.45943C9.18752 6.97759 8.52187 7.32752 7.79878 7.46417C7.07569 7.60083 6.32824 7.51796 5.65264 7.22623L3.01202 10.2833C3.00694 10.2934 2.99678 10.2985 2.99171 10.3036C2.8412 10.4547 2.66235 10.5745 2.4654 10.6563C2.26846 10.7381 2.0573 10.7802 1.84405 10.7802C1.63079 10.7802 1.41964 10.7381 1.2227 10.6563C1.02575 10.5745 0.846898 10.4547 0.696394 10.3036C0.54531 10.1531 0.42543 9.97422 0.343632 9.77727C0.261834 9.58033 0.219727 9.36917 0.219727 9.15592C0.219727 8.94266 0.261834 8.73151 0.343632 8.53456C0.42543 8.33762 0.54531 8.15877 0.696394 8.00826L0.716706 7.98795L3.77374 5.34732C3.47928 4.67654 3.39311 3.93277 3.5264 3.21243C3.65969 2.49209 4.0063 1.8284 4.52128 1.30739C5.03627 0.78639 5.69589 0.432096 6.41463 0.290443C7.13337 0.148789 7.87809 0.226308 8.55225 0.51295C8.61323 0.538564 8.66693 0.578858 8.70857 0.630245C8.75021 0.681632 8.77851 0.742517 8.79093 0.807481C8.80374 0.872913 8.80025 0.940493 8.78076 1.00426C8.76128 1.06802 8.7264 1.12601 8.67921 1.17311L6.70382 3.1485L6.89171 4.10826L7.85147 4.29615L9.82686 2.32076C9.87396 2.27357 9.93195 2.23869 9.99571 2.21921C10.0595 2.19972 10.1271 2.19623 10.1925 2.20904C10.2575 2.22146 10.3183 2.24975 10.3697 2.29139C10.4211 2.33304 10.4614 2.38674 10.487 2.44772C10.7737 3.1174 10.8529 3.85767 10.7144 4.57284C10.5759 5.28801 10.226 5.9452 9.71006 6.45943Z" fill="#35D07F"/>
</svg>
