<svg width="10" height="10" viewBox="0 0 10 10" fill="none" xmlns="http://www.w3.org/2000/svg">
<path d="M9.39219 5.26719L7.42344 7.23594C7.35145 7.30474 7.25583 7.34333 7.15625 7.34375C7.10797 7.34388 7.06015 7.33431 7.01562 7.31562C6.9465 7.28766 6.88728 7.23972 6.84553 7.17794C6.80378 7.11615 6.7814 7.04332 6.78125 6.96875V5.375H3.875C3.77554 5.375 3.68016 5.33549 3.60984 5.26517C3.53951 5.19484 3.5 5.09946 3.5 5C3.5 4.90054 3.53951 4.80516 3.60984 4.73484C3.68016 4.66451 3.77554 4.625 3.875 4.625H6.78125V3.03125C6.7814 2.95668 6.80378 2.88385 6.84553 2.82206C6.88728 2.76028 6.9465 2.71234 7.01562 2.68437C7.08409 2.65718 7.15893 2.65023 7.23123 2.66436C7.30353 2.67849 7.37024 2.7131 7.42344 2.76406L9.39219 4.73281C9.46261 4.80391 9.50211 4.89993 9.50211 5C9.50211 5.10007 9.46261 5.19609 9.39219 5.26719ZM3.875 8.75H1.25V1.25H3.875C3.97446 1.25 4.06984 1.21049 4.14016 1.14016C4.21049 1.06984 4.25 0.974456 4.25 0.875C4.25 0.775544 4.21049 0.680161 4.14016 0.609835C4.06984 0.539509 3.97446 0.5 3.875 0.5H1.25C1.05109 0.5 0.860322 0.579018 0.71967 0.71967C0.579018 0.860322 0.5 1.05109 0.5 1.25V8.75C0.5 8.94891 0.579018 9.13968 0.71967 9.28033C0.860322 9.42098 1.05109 9.5 1.25 9.5H3.875C3.97446 9.5 4.06984 9.46049 4.14016 9.39017C4.21049 9.31984 4.25 9.22446 4.25 9.125C4.25 9.02554 4.21049 8.93016 4.14016 8.85983C4.06984 8.78951 3.97446 8.75 3.875 8.75Z" fill="black"/>
</svg>
