<svg width="14" height="14" viewBox="0 0 14 14" fill="none" xmlns="http://www.w3.org/2000/svg">
<path fill-rule="evenodd" clip-rule="evenodd" d="M8.19141 1.34052C7.88741 0.047951 6.11141 0.047951 5.80741 1.34052C5.76202 1.53475 5.673 1.71514 5.54759 1.86701C5.42217 2.01887 5.26391 2.13792 5.08568 2.21447C4.90746 2.29103 4.71429 2.32291 4.52192 2.30754C4.32954 2.29217 4.14339 2.22997 3.97861 2.12601C2.88101 1.43332 1.62501 2.73418 2.29381 3.87098C2.72581 4.60509 2.34261 5.56292 1.53621 5.76592C0.287409 6.07995 0.287409 7.92021 1.53621 8.23341C1.72379 8.28047 1.89799 8.37276 2.04462 8.50275C2.19125 8.63274 2.30616 8.79676 2.38 8.98146C2.45384 9.16615 2.48452 9.3663 2.46954 9.5656C2.45457 9.76489 2.39435 9.95771 2.29381 10.1283C1.62501 11.2651 2.88101 12.566 3.97861 11.8733C4.14336 11.7692 4.32953 11.7068 4.52196 11.6913C4.71438 11.6758 4.90763 11.7076 5.08595 11.784C5.26428 11.8605 5.42264 11.9795 5.54815 12.1314C5.67366 12.2833 5.76276 12.4637 5.80821 12.658C6.11141 13.9514 7.88821 13.9514 8.19061 12.658C8.23621 12.4638 8.3254 12.2835 8.45093 12.1317C8.57647 11.98 8.73481 11.861 8.91308 11.7846C9.09135 11.7081 9.28452 11.6763 9.4769 11.6917C9.66927 11.7072 9.85542 11.7694 10.0202 11.8733C11.1178 12.566 12.3738 11.2651 11.705 10.1283C11.6046 9.95767 11.5446 9.76488 11.5297 9.56563C11.5148 9.36639 11.5455 9.16632 11.6193 8.98168C11.6931 8.79704 11.808 8.63305 11.9545 8.50303C12.101 8.37301 12.2751 8.28063 12.4626 8.23341C13.7114 7.91938 13.7114 6.07912 12.4626 5.76592C12.275 5.71885 12.1008 5.62657 11.9542 5.49658C11.8076 5.36658 11.6927 5.20256 11.6188 5.01787C11.545 4.83318 11.5143 4.63303 11.5293 4.43373C11.5443 4.23443 11.6045 4.04161 11.705 3.87098C12.3738 2.73418 11.1178 1.43332 10.0202 2.12601C9.85546 2.23014 9.66929 2.29251 9.47686 2.30802C9.28443 2.32353 9.09119 2.29176 8.91287 2.21528C8.73454 2.1388 8.57618 2.01978 8.45067 1.86792C8.32516 1.71605 8.23605 1.53563 8.19061 1.34135L8.19141 1.34052ZM6.99941 9.48538C7.63593 9.48538 8.24638 9.22349 8.69647 8.75733C9.14655 8.29117 9.39941 7.65892 9.39941 6.99966C9.39941 6.34041 9.14655 5.70816 8.69647 5.242C8.24638 4.77584 7.63593 4.51395 6.99941 4.51395C6.36289 4.51395 5.75244 4.77584 5.30235 5.242C4.85227 5.70816 4.59941 6.34041 4.59941 6.99966C4.59941 7.65892 4.85227 8.29117 5.30235 8.75733C5.75244 9.22349 6.36289 9.48538 6.99941 9.48538Z" fill="#6B88EF"/>
</svg>
