<svg width="22" height="14" viewBox="0 0 22 14" fill="none" xmlns="http://www.w3.org/2000/svg">
<path d="M11 11.9531C10.2181 11.9531 9.45385 11.7213 8.80376 11.2869C8.15368 10.8525 7.64699 10.2351 7.34779 9.5128C7.04859 8.79046 6.9703 7.99562 7.12284 7.22879C7.27537 6.46195 7.65187 5.75757 8.20472 5.20472C8.75757 4.65187 9.46195 4.27537 10.2288 4.12284C10.9956 3.9703 11.7905 4.04859 12.5128 4.34779C13.2351 4.64699 13.8525 5.15368 14.2869 5.80376C14.7213 6.45385 14.9531 7.21815 14.9531 8C14.9513 9.04788 14.5342 10.0523 13.7933 10.7933C13.0523 11.5342 12.0479 11.9513 11 11.9531ZM11 5.07813C10.4221 5.07813 9.85719 5.24949 9.37669 5.57055C8.89619 5.89161 8.52169 6.34795 8.30054 6.88185C8.07939 7.41575 8.02153 8.00324 8.13427 8.57003C8.24701 9.13682 8.52529 9.65745 8.93392 10.0661C9.34256 10.4747 9.86318 10.753 10.43 10.8657C10.9968 10.9785 11.5843 10.9206 12.1182 10.6995C12.6521 10.4783 13.1084 10.1038 13.4295 9.62331C13.7505 9.14281 13.9219 8.57789 13.9219 8C13.9219 7.22507 13.614 6.48188 13.0661 5.93392C12.5181 5.38597 11.7749 5.07813 11 5.07813Z" fill="black"/>
<path d="M11.0001 13.9263C8.99544 13.9337 7.02161 13.4332 5.26277 12.4715C3.50392 11.5097 2.0174 10.118 0.941934 8.42629L0.763184 8.15129L0.941934 7.87629C2.01825 6.18256 3.50472 4.78795 5.26356 3.82171C7.02241 2.85547 8.99672 2.34888 11.0035 2.34888C13.0103 2.34888 14.9846 2.85547 16.7434 3.82171C18.5023 4.78795 19.9887 6.18256 21.0651 7.87629L21.2438 8.15129L21.0651 8.42629C19.989 10.119 18.5014 11.5113 16.7412 12.4731C14.9811 13.435 13.0058 13.9349 11.0001 13.9263ZM1.99381 8.13066C2.9921 9.60104 4.33508 10.8047 5.90555 11.6367C7.47603 12.4687 9.22626 12.9037 11.0035 12.9037C12.7807 12.9037 14.531 12.4687 16.1014 11.6367C17.6719 10.8047 19.0149 9.60104 20.0132 8.13066C19.0149 6.66029 17.6719 5.45659 16.1014 4.62461C14.531 3.79263 12.7807 3.35766 11.0035 3.35766C9.22626 3.35766 7.47603 3.79263 5.90555 4.62461C4.33508 5.45659 2.9921 6.66029 1.99381 8.13066Z" fill="black"/>
<path d="M11 0.35498C11.1368 0.35498 11.2679 0.409305 11.3646 0.506003C11.4613 0.602702 11.5156 0.733853 11.5156 0.870605V3.10498H10.4844V0.86373C10.4862 0.728173 10.5413 0.598781 10.6378 0.503565C10.7343 0.408348 10.8644 0.354968 11 0.35498ZM4.17314 1.51686C4.29624 1.45775 4.43776 1.4499 4.56664 1.49501C4.69553 1.54012 4.80126 1.63451 4.86064 1.75748L5.83001 3.77186L4.90189 4.21873L3.93251 2.20436C3.87341 2.08125 3.86555 1.93974 3.91066 1.81085C3.95577 1.68196 4.05017 1.57623 4.17314 1.51686ZM17.8269 1.53748C17.7038 1.47838 17.5623 1.47052 17.4334 1.51563C17.3045 1.56074 17.1988 1.65514 17.1394 1.77811L16.17 3.78561L17.0981 4.23248L18.0675 2.22498C18.1266 2.10188 18.1345 1.96036 18.0894 1.83147C18.0443 1.70259 17.9499 1.59686 17.8269 1.53748Z" fill="black"/>
</svg>
