<svg width="22" height="10" viewBox="0 0 22 10" fill="none" xmlns="http://www.w3.org/2000/svg">
<path d="M10.6627 7.05393C8.58953 7.05879 6.54602 6.56141 4.70697 5.60433C2.86793 4.64725 1.28807 3.25895 0.10254 1.55817C0.0592858 1.49708 0.0287719 1.4279 0.0128168 1.35477C-0.00313842 1.28163 -0.0042084 1.20603 0.00967056 1.13247C0.0235495 1.05891 0.0520935 0.988903 0.0936016 0.926609C0.13511 0.864315 0.188733 0.811013 0.251275 0.76988C0.372022 0.697104 0.515849 0.672752 0.653822 0.701727C0.791796 0.730701 0.913678 0.810851 0.994949 0.926052C2.08266 2.47274 3.5265 3.73506 5.20461 4.60645C6.88271 5.47784 8.74582 5.93274 10.6367 5.93274C12.5275 5.93274 14.3907 5.47784 16.0688 4.60645C17.7469 3.73506 19.1907 2.47274 20.2784 0.926052C20.3597 0.810851 20.4816 0.730701 20.6195 0.701727C20.7575 0.672752 20.9013 0.697104 21.0221 0.76988C21.0858 0.809821 21.1408 0.862235 21.1838 0.923974C21.2267 0.985713 21.2567 1.0555 21.272 1.12914C21.2873 1.20278 21.2875 1.27874 21.2727 1.35247C21.2579 1.4262 21.2283 1.49617 21.1857 1.55817C20.0038 3.25378 18.4298 4.63889 16.5977 5.59572C14.7657 6.55254 12.7296 7.05279 10.6627 7.05393Z" fill="black"/>
<path d="M10.6631 9.32187C10.5151 9.32187 10.3733 9.2631 10.2687 9.1585C10.1641 9.0539 10.1053 8.91204 10.1053 8.76411V6.34717H11.2208V8.76411C11.2208 8.91204 11.162 9.0539 11.0574 9.1585C10.9528 9.2631 10.811 9.32187 10.6631 9.32187ZM18.0477 8.05762C17.9146 8.12155 17.7615 8.13005 17.6221 8.08126C17.4827 8.03246 17.3683 7.93035 17.3041 7.79734L16.2555 5.61837L17.2594 5.13498L18.308 7.31395C18.372 7.44711 18.3805 7.60019 18.3317 7.73961C18.2829 7.87902 18.1808 7.99339 18.0477 8.05762ZM3.27837 8.03531C3.41153 8.09924 3.56461 8.10774 3.70403 8.05895C3.84345 8.01015 3.95782 7.90804 4.02204 7.77502L5.07062 5.59606L4.06666 5.11267L3.01808 7.29164C2.95415 7.4248 2.94565 7.57788 2.99445 7.7173C3.04324 7.85671 3.14535 7.97108 3.27837 8.03531Z" fill="black"/>
</svg>
