<svg width="24" height="24" viewBox="0 0 24 24" fill="none" xmlns="http://www.w3.org/2000/svg">
<circle cx="12.2559" cy="12.2549" r="10.875" fill="white"/>
<path d="M3.94602 3.94602C-0.635654 8.5277 -0.635654 15.9818 3.94602 20.5635C8.5277 25.1452 15.9818 25.1452 20.5635 20.5635C25.1452 15.9818 25.1452 8.5277 20.5635 3.94602C15.9818 -0.635654 8.5277 -0.635654 3.94602 3.94602ZM19.5249 19.5249C15.5842 23.4656 8.92533 23.4656 4.98461 19.5249C1.0439 15.5842 1.0439 8.92533 4.98462 4.98462C8.92533 1.0439 15.5842 1.0439 19.5249 4.98462C23.4656 8.92533 23.4656 15.5842 19.5249 19.5249Z" fill="#33A1FD"/>
<path fill-rule="evenodd" clip-rule="evenodd" d="M12.2548 7.88529C12.6604 7.88529 12.9892 8.21409 12.9892 8.61969V11.5204L15.8898 11.5204C16.2954 11.5204 16.6242 11.8492 16.6242 12.2548C16.6242 12.6604 16.2954 12.9892 15.8898 12.9892H12.9892L12.9892 15.8898C12.9892 16.2954 12.6604 16.6242 12.2548 16.6242C11.8492 16.6242 11.5204 16.2954 11.5204 15.8898V12.9892H8.61969C8.21409 12.9892 7.88529 12.6604 7.88529 12.2548C7.88529 11.8492 8.21409 11.5204 8.61969 11.5204L11.5204 11.5204V8.61969C11.5204 8.21409 11.8492 7.88529 12.2548 7.88529Z" fill="#33A1FD"/>
</svg>
