<svg width="18" height="18" viewBox="0 0 18 18" fill="none" xmlns="http://www.w3.org/2000/svg">
<path d="M14.25 9.75H3.75C3.55109 9.75 3.36032 9.67098 3.21967 9.53033C3.07902 9.38968 3 9.19891 3 9C3 8.80109 3.07902 8.61032 3.21967 8.46967C3.36032 8.32902 3.55109 8.25 3.75 8.25H14.25C14.4489 8.25 14.6397 8.32902 14.7803 8.46967C14.921 8.61032 15 8.80109 15 9C15 9.19891 14.921 9.38968 14.7803 9.53033C14.6397 9.67098 14.4489 9.75 14.25 9.75Z" fill="white"/>
<path d="M9 15C8.90149 15.0001 8.80394 14.9807 8.71292 14.943C8.6219 14.9054 8.5392 14.8501 8.46955 14.7805C8.39989 14.7108 8.34465 14.6281 8.30698 14.5371C8.2693 14.4461 8.24994 14.3485 8.25 14.25V3.75C8.25 3.55109 8.32902 3.36032 8.46967 3.21967C8.61032 3.07902 8.80109 3 9 3C9.19891 3 9.38968 3.07902 9.53033 3.21967C9.67098 3.36032 9.75 3.55109 9.75 3.75V14.25C9.75006 14.3485 9.7307 14.4461 9.69302 14.5371C9.65535 14.6281 9.60011 14.7108 9.53046 14.7805C9.4608 14.8501 9.3781 14.9054 9.28708 14.943C9.19606 14.9807 9.09851 15.0001 9 15Z" fill="white"/>
</svg>
