<svg width="21" height="19" viewBox="0 0 21 19" fill="none" xmlns="http://www.w3.org/2000/svg">
<path d="M19.0938 0.90625H1.90625C1.49185 0.90625 1.09442 1.07087 0.801396 1.3639C0.50837 1.65692 0.34375 2.05435 0.34375 2.46875V16.5312C0.34375 16.9457 0.50837 17.3431 0.801396 17.6361C1.09442 17.9291 1.49185 18.0938 1.90625 18.0938H19.0938C19.5082 18.0938 19.9056 17.9291 20.1986 17.6361C20.4916 17.3431 20.6562 16.9457 20.6562 16.5312V2.46875C20.6562 2.05435 20.4916 1.65692 20.1986 1.3639C19.9056 1.07087 19.5082 0.90625 19.0938 0.90625ZM15.5781 13.4062H5.42188C5.21467 13.4062 5.01596 13.3239 4.86945 13.1774C4.72294 13.0309 4.64062 12.8322 4.64062 12.625C4.64062 12.4178 4.72294 12.2191 4.86945 12.0726C5.01596 11.9261 5.21467 11.8438 5.42188 11.8438H15.5781C15.7853 11.8438 15.984 11.9261 16.1306 12.0726C16.2771 12.2191 16.3594 12.4178 16.3594 12.625C16.3594 12.8322 16.2771 13.0309 16.1306 13.1774C15.984 13.3239 15.7853 13.4062 15.5781 13.4062ZM15.5781 10.2812H5.42188C5.21467 10.2812 5.01596 10.1989 4.86945 10.0524C4.72294 9.90592 4.64062 9.7072 4.64062 9.5C4.64062 9.2928 4.72294 9.09409 4.86945 8.94757C5.01596 8.80106 5.21467 8.71875 5.42188 8.71875H15.5781C15.7853 8.71875 15.984 8.80106 16.1306 8.94757C16.2771 9.09409 16.3594 9.2928 16.3594 9.5C16.3594 9.7072 16.2771 9.90592 16.1306 10.0524C15.984 10.1989 15.7853 10.2812 15.5781 10.2812ZM15.5781 7.15625H5.42188C5.21467 7.15625 5.01596 7.07394 4.86945 6.92743C4.72294 6.78091 4.64062 6.5822 4.64062 6.375C4.64062 6.1678 4.72294 5.96909 4.86945 5.82257C5.01596 5.67606 5.21467 5.59375 5.42188 5.59375H15.5781C15.7853 5.59375 15.984 5.67606 16.1306 5.82257C16.2771 5.96909 16.3594 6.1678 16.3594 6.375C16.3594 6.5822 16.2771 6.78091 16.1306 6.92743C15.984 7.07394 15.7853 7.15625 15.5781 7.15625Z" fill="currentColor"/>
</svg>
