<svg width="12" height="9" viewBox="0 0 12 9" fill="none" xmlns="http://www.w3.org/2000/svg">
<path d="M9.37008 8.13619C9.41663 8.19032 9.44632 8.25689 9.45549 8.32769C9.46465 8.3985 9.45288 8.47044 9.42164 8.53463C9.39198 8.59915 9.34439 8.65378 9.28455 8.69201C9.22471 8.73024 9.15515 8.75046 9.08414 8.75026H1.04039C0.96938 8.75046 0.899812 8.73024 0.839973 8.69201C0.780135 8.65378 0.73255 8.59915 0.702888 8.53463C0.671644 8.47044 0.659877 8.3985 0.66904 8.32769C0.678202 8.25689 0.707894 8.19032 0.754451 8.13619C1.43942 7.31328 2.3478 6.70607 3.37008 6.38776C2.78377 6.02047 2.33289 5.47239 2.0855 4.82629C1.83812 4.18018 1.80766 3.47113 1.99874 2.80619C2.18982 2.14125 2.59205 1.55653 3.1447 1.14033C3.69735 0.724121 4.37042 0.499023 5.06226 0.499023C5.75411 0.499023 6.42717 0.724121 6.97983 1.14033C7.53248 1.55653 7.93471 2.14125 8.12578 2.80619C8.31686 3.47113 8.28641 4.18018 8.03902 4.82629C7.79164 5.47239 7.34075 6.02047 6.75445 6.38776C7.77672 6.70607 8.6851 7.31328 9.37008 8.13619ZM11.7748 6.21901C11.7416 6.27651 11.6937 6.32417 11.636 6.35711C11.5784 6.39005 11.513 6.4071 11.4466 6.40651C11.3806 6.40704 11.3156 6.38919 11.2591 6.35494L11.0435 6.22838C10.9385 6.31846 10.8177 6.38838 10.6873 6.43463V6.68776C10.6873 6.78721 10.6478 6.8826 10.5774 6.95292C10.5071 7.02325 10.4117 7.06276 10.3123 7.06276C10.2128 7.06276 10.1174 7.02325 10.0471 6.95292C9.97677 6.8826 9.93726 6.78721 9.93726 6.68776V6.43463C9.80684 6.38838 9.68607 6.31846 9.58101 6.22838L9.36539 6.35494C9.30888 6.38919 9.24396 6.40704 9.17789 6.40651C9.09576 6.40601 9.01606 6.37857 8.95104 6.32839C8.88601 6.2782 8.83927 6.20807 8.81797 6.12874C8.79668 6.04942 8.80201 5.9653 8.83316 5.8893C8.86431 5.8133 8.91955 5.74963 8.99039 5.70807L9.20601 5.58151C9.18101 5.44514 9.18101 5.30537 9.20601 5.16901L8.99039 5.04244C8.94717 5.01856 8.90917 4.98628 8.87861 4.94749C8.84805 4.90871 8.82556 4.8642 8.81246 4.81659C8.79936 4.76899 8.79591 4.71924 8.80231 4.67028C8.80872 4.62132 8.82485 4.57414 8.84976 4.53151C8.9006 4.44563 8.9832 4.38323 9.0797 4.35779C9.17619 4.33235 9.27882 4.34592 9.36539 4.39557L9.58101 4.52213C9.68607 4.43206 9.80684 4.36214 9.93726 4.31588V4.06276C9.93726 3.9633 9.97677 3.86792 10.0471 3.79759C10.1174 3.72727 10.2128 3.68776 10.3123 3.68776C10.4117 3.68776 10.5071 3.72727 10.5774 3.79759C10.6478 3.86792 10.6873 3.9633 10.6873 4.06276V4.31588C10.8177 4.36214 10.9385 4.43206 11.0435 4.52213L11.2591 4.39557C11.3457 4.34592 11.4483 4.33235 11.5448 4.35779C11.6413 4.38323 11.7239 4.44563 11.7748 4.53151C11.7997 4.57414 11.8158 4.62132 11.8222 4.67028C11.8286 4.71924 11.8252 4.76899 11.8121 4.81659C11.799 4.8642 11.7765 4.90871 11.7459 4.94749C11.7154 4.98628 11.6774 5.01856 11.6341 5.04244L11.4185 5.16901C11.4435 5.30537 11.4435 5.44514 11.4185 5.58151L11.6341 5.70807C11.6774 5.73195 11.7154 5.76423 11.7459 5.80302C11.7765 5.84181 11.799 5.88631 11.8121 5.93392C11.8252 5.98152 11.8286 6.03127 11.8222 6.08023C11.8158 6.12919 11.7997 6.17637 11.7748 6.21901ZM10.3123 5.75026C10.3864 5.75026 10.4589 5.72826 10.5206 5.68706C10.5823 5.64585 10.6303 5.58728 10.6587 5.51876C10.6871 5.45024 10.6945 5.37484 10.6801 5.3021C10.6656 5.22935 10.6299 5.16254 10.5774 5.11009C10.525 5.05765 10.4582 5.02193 10.3854 5.00746C10.3127 4.99299 10.2373 5.00042 10.1688 5.0288C10.1002 5.05718 10.0417 5.10525 10.0005 5.16692C9.95926 5.22859 9.93726 5.30109 9.93726 5.37526C9.93726 5.47471 9.97677 5.5701 10.0471 5.64042C10.1174 5.71075 10.2128 5.75026 10.3123 5.75026Z" fill="black"/>
</svg>
