<svg width="25" height="25" viewBox="0 0 25 25" fill="none" xmlns="http://www.w3.org/2000/svg">
<circle cx="12.5" cy="12.5" r="11.5" fill="#FFCECE"/>
<path d="M18.5714 12.9871V16.5541C18.5714 16.6724 18.524 16.7858 18.4397 16.8694C18.3553 16.953 18.2408 17 18.1215 17H14.5223C14.4336 16.9996 14.347 16.9735 14.2731 16.925C14.1992 16.8765 14.1411 16.8076 14.1061 16.7269C14.0737 16.6445 14.0655 16.5548 14.0824 16.468C14.0993 16.3812 14.1407 16.3009 14.2017 16.2364L15.6864 14.7706L12.7226 11.8335L10.7937 13.7507C10.7084 13.8344 10.5932 13.8814 10.4731 13.8814C10.3531 13.8814 10.2379 13.8344 10.1526 13.7507L6.10341 9.73785C6.03167 9.65122 5.995 9.54124 6.00055 9.4293C6.0061 9.31736 6.05346 9.21147 6.13342 9.13223C6.21339 9.05298 6.32023 9.00604 6.43318 9.00054C6.54613 8.99505 6.65711 9.03138 6.74452 9.10248L10.4731 12.8032L12.4021 10.886C12.4874 10.8022 12.6026 10.7553 12.7226 10.7553C12.8427 10.7553 12.9579 10.8022 13.0432 10.886L16.3219 14.1408L17.801 12.6695C17.866 12.609 17.947 12.568 18.0346 12.5512C18.1222 12.5344 18.2128 12.5426 18.2959 12.5747C18.3777 12.6088 18.4476 12.6662 18.4966 12.7396C18.5457 12.813 18.5717 12.8991 18.5714 12.9871Z" fill="#E80000"/>
</svg>
