<svg width="16" height="16" viewBox="0 0 16 16" fill="none" xmlns="http://www.w3.org/2000/svg">
<path d="M7.57427 9.86872C8.24511 9.42308 8.75466 8.77331 9.02751 8.01557C9.30036 7.25783 9.32201 6.43238 9.08926 5.66137C8.85651 4.89037 8.38173 4.21478 7.73517 3.73459C7.08861 3.2544 6.30464 2.99512 5.49927 2.99512C4.69391 2.99512 3.90993 3.2544 3.26338 3.73459C2.61682 4.21478 2.14204 4.89037 1.90929 5.66137C1.67654 6.43238 1.69819 7.25783 1.97104 8.01557C2.24389 8.77331 2.75343 9.42308 3.42427 9.86872C2.27988 10.2895 1.29182 11.0508 0.593024 12.05C0.538441 12.1241 0.505952 12.2121 0.499316 12.3039C0.49268 12.3957 0.512167 12.4875 0.555524 12.5687C0.598369 12.6494 0.662236 12.7169 0.740358 12.7643C0.818479 12.8116 0.907945 12.8369 0.999274 12.8375H9.99927C10.0906 12.8369 10.1801 12.8116 10.2582 12.7643C10.3363 12.7169 10.4002 12.6494 10.443 12.5687C10.4864 12.4875 10.5059 12.3957 10.4992 12.3039C10.4926 12.2121 10.4601 12.1241 10.4055 12.05C9.70672 11.0508 8.71867 10.2895 7.57427 9.86872Z" fill="#6B88EF"/>
<path d="M15.5067 12.05C14.8039 11.052 13.8143 10.2913 12.6692 9.86877C13.3421 9.42483 13.8538 8.77551 14.1281 8.01739C14.4024 7.25927 14.4246 6.43287 14.1914 5.66111C13.9583 4.88935 13.4822 4.21347 12.8341 3.73401C12.186 3.25455 11.4004 2.99712 10.5942 3.00002C10.2501 3.00185 9.90767 3.04806 9.57542 3.13752C9.49738 3.16096 9.42605 3.20268 9.36735 3.2592C9.30866 3.31572 9.26429 3.38542 9.23792 3.46252C9.21277 3.53899 9.20645 3.62041 9.21951 3.69984C9.23257 3.77927 9.26461 3.85438 9.31292 3.91877C9.87818 4.67826 10.2029 5.58968 10.2453 6.53548C10.2876 7.48129 10.0456 8.41808 9.55042 9.22502C9.48692 9.33225 9.46521 9.45912 9.48942 9.58136C9.51364 9.7036 9.58209 9.81261 9.68167 9.88752C9.86917 10.0334 10.0504 10.1834 10.2254 10.3375L10.2567 10.3688C10.9238 10.9861 11.465 11.7268 11.8504 12.55C11.89 12.636 11.9534 12.7089 12.0332 12.7599C12.113 12.8108 12.2057 12.8378 12.3004 12.8375H15.0942C15.1855 12.8369 15.275 12.8116 15.3531 12.7643C15.4312 12.717 15.4951 12.6494 15.5379 12.5688C15.5808 12.4877 15.6005 12.3965 15.595 12.305C15.5895 12.2135 15.5589 12.1253 15.5067 12.05Z" fill="#6B88EF"/>
</svg>
