<svg width="19" height="19" viewBox="0 0 19 19" fill="none" xmlns="http://www.w3.org/2000/svg">
<path d="M17.8687 14.7442L14.7437 17.8692C14.5937 18.0125 14.3945 18.0929 14.187 18.0938C14.0833 18.0933 13.9806 18.0735 13.8843 18.0352C13.7421 17.9754 13.6208 17.8749 13.5356 17.7463C13.4505 17.6177 13.4053 17.4668 13.4058 17.3125V14.9688H1.68701C1.47981 14.9688 1.2811 14.8865 1.13458 14.74C0.988072 14.5935 0.905762 14.3947 0.905762 14.1875C0.905762 13.9803 0.988072 13.7816 1.13458 13.6351C1.2811 13.4886 1.47981 13.4063 1.68701 13.4063H13.4058V11.0625C13.4053 10.9083 13.4505 10.7574 13.5356 10.6288C13.6208 10.5002 13.7421 10.3997 13.8843 10.3399C14.0286 10.2836 14.1859 10.2693 14.338 10.2987C14.49 10.3281 14.6307 10.3999 14.7437 10.5059L17.8687 13.6309C18.0154 13.779 18.0977 13.9791 18.0977 14.1875C18.0977 14.396 18.0154 14.5961 17.8687 14.7442ZM4.25537 8.49419C4.40534 8.63753 4.60456 8.71792 4.81201 8.7188C4.9157 8.71835 5.01838 8.69847 5.11475 8.6602C5.25693 8.60044 5.37825 8.49992 5.46341 8.37132C5.54856 8.24272 5.59374 8.09179 5.59326 7.93755V5.5938H17.312C17.5192 5.5938 17.7179 5.51149 17.8644 5.36497C18.011 5.21846 18.0933 5.01975 18.0933 4.81255C18.0933 4.60535 18.011 4.40663 17.8644 4.26012C17.7179 4.11361 17.5192 4.0313 17.312 4.0313H5.59326V1.68755C5.59374 1.53331 5.54856 1.38238 5.46341 1.25378C5.37825 1.12518 5.25693 1.02466 5.11475 0.96489C4.97044 0.908604 4.81315 0.894326 4.66107 0.923705C4.50899 0.953084 4.36833 1.02492 4.25537 1.13091L1.13037 4.25591C0.983667 4.40403 0.901367 4.60407 0.901367 4.81255C0.901367 5.02102 0.983667 5.22107 1.13037 5.36919L4.25537 8.49419Z" fill="currentColor"/>
</svg>
