<svg width="25" height="25" viewBox="0 0 25 25" fill="none" xmlns="http://www.w3.org/2000/svg">
<circle cx="13" cy="12" r="11" fill="#E1F6D7"/>
<path d="M19 8.44444V12C19.0003 12.0877 18.9734 12.1736 18.9228 12.2468C18.8722 12.3199 18.8002 12.3771 18.7157 12.4111C18.6584 12.4329 18.5974 12.4442 18.5358 12.4444C18.4125 12.4439 18.2942 12.3982 18.2051 12.3167L16.679 10.85L13.2962 14.0944C13.2082 14.1779 13.0894 14.2247 12.9655 14.2247C12.8416 14.2247 12.7228 14.1779 12.6348 14.0944L10.6445 12.1833L6.79754 15.8722C6.70844 15.9538 6.59007 15.9995 6.4668 16C6.34377 15.9984 6.22581 15.9528 6.13607 15.8722C6.0489 15.788 6 15.6742 6 15.5556C6 15.437 6.0489 15.3232 6.13607 15.2389L10.3138 11.2389C10.4018 11.1554 10.5207 11.1086 10.6445 11.1086C10.7684 11.1086 10.8873 11.1554 10.9753 11.2389L12.9655 13.15L16.0234 10.2222L14.4915 8.76111C14.4286 8.69685 14.3859 8.61683 14.3684 8.53032C14.351 8.4438 14.3594 8.35432 14.3929 8.27222C14.429 8.19176 14.4889 8.12315 14.5652 8.07479C14.6414 8.02644 14.7308 8.00044 14.8223 8H18.5358C18.6589 8 18.777 8.04683 18.864 8.13017C18.9511 8.21352 19 8.32657 19 8.44444Z" fill="#5EA33B"/>
</svg>
