
<svg width="17" height="16" viewBox="0 0 15 14" fill="none" xmlns="http://www.w3.org/2000/svg">
<path d="M4.56328 4.24924C4.48113 4.16629 4.43504 4.05427 4.43504 3.93752C4.43504 3.82077 4.48113 3.70875 4.56328 3.6258L7.18828 1.0008C7.27123 0.918646 7.38325 0.872559 7.5 0.872559C7.61675 0.872559 7.72877 0.918646 7.81172 1.0008L10.4367 3.6258C10.5189 3.70875 10.565 3.82077 10.565 3.93752C10.565 4.05427 10.5189 4.16629 10.4367 4.24924C10.3531 4.3301 10.2413 4.3753 10.125 4.3753C10.0087 4.3753 9.89691 4.3301 9.81328 4.24924L7.9375 2.36799V7.00002C7.9375 7.11605 7.89141 7.22733 7.80936 7.30938C7.72731 7.39143 7.61603 7.43752 7.5 7.43752C7.38397 7.43752 7.27269 7.39143 7.19064 7.30938C7.10859 7.22733 7.0625 7.11605 7.0625 7.00002V2.36799L5.18672 4.24924C5.10377 4.33139 4.99175 4.37748 4.875 4.37748C4.75825 4.37748 4.64623 4.33139 4.56328 4.24924V4.24924ZM13.625 7.43752V10.9375C13.625 11.1696 13.5328 11.3921 13.3687 11.5562C13.2046 11.7203 12.9821 11.8125 12.75 11.8125H2.25C2.01794 11.8125 1.79538 11.7203 1.63128 11.5562C1.46719 11.3921 1.375 11.1696 1.375 10.9375V7.43752C1.375 7.20546 1.46719 6.9829 1.63128 6.8188C1.79538 6.65471 2.01794 6.56252 2.25 6.56252H5.96875C6.02677 6.56252 6.08241 6.58557 6.12343 6.62659C6.16445 6.66761 6.1875 6.72325 6.1875 6.78127V6.97268C6.1875 7.70549 6.78906 8.32893 7.52734 8.31252C7.87068 8.30537 8.19754 8.16393 8.4378 7.91856C8.67805 7.67319 8.81257 7.34343 8.8125 7.00002V6.78127C8.8125 6.72325 8.83555 6.66761 8.87657 6.62659C8.91759 6.58557 8.97323 6.56252 9.03125 6.56252H12.75C12.9821 6.56252 13.2046 6.65471 13.3687 6.8188C13.5328 6.9829 13.625 7.20546 13.625 7.43752ZM11.4375 9.18752C11.4375 9.05773 11.399 8.93085 11.3269 8.82293C11.2548 8.71501 11.1523 8.63089 11.0324 8.58122C10.9125 8.53155 10.7805 8.51856 10.6532 8.54388C10.5259 8.5692 10.409 8.6317 10.3172 8.72348C10.2254 8.81526 10.1629 8.93219 10.1376 9.05949C10.1123 9.18679 10.1253 9.31874 10.175 9.43866C10.2246 9.55857 10.3087 9.66106 10.4167 9.73317C10.5246 9.80528 10.6515 9.84377 10.7812 9.84377C10.9553 9.84377 11.1222 9.77463 11.2453 9.65156C11.3684 9.52849 11.4375 9.36157 11.4375 9.18752V9.18752Z" fill="white"/>
</svg>
