
<svg width="18" height="13" viewBox="0 0 18 13" fill="none" xmlns="http://www.w3.org/2000/svg">
<path d="M4.50002 6.84337C4.50097 6.9175 4.48706 6.99107 4.45913 7.05974C4.43119 7.12841 4.3898 7.1908 4.33737 7.24322C4.28495 7.29564 4.22257 7.33704 4.15389 7.36497C4.08522 7.39291 4.01165 7.40681 3.93752 7.40587H0.843772C0.739273 7.40502 0.63697 7.37579 0.5478 7.32129C0.45863 7.2668 0.385947 7.1891 0.337522 7.09649C0.292493 7.00219 0.27394 6.89742 0.283847 6.79339C0.293755 6.68936 0.331751 6.58997 0.393772 6.50587C0.891576 5.83764 1.55584 5.31156 2.32033 4.98009C1.99183 4.67938 1.73943 4.30495 1.58392 3.88763C1.4284 3.47031 1.37421 3.02203 1.42581 2.57967C1.4774 2.13732 1.63331 1.71354 1.8807 1.34321C2.12809 0.972888 2.45989 0.666606 2.84878 0.449576C3.23768 0.232546 3.67255 0.110971 4.11762 0.094859C4.56268 0.0787467 5.00521 0.168557 5.40878 0.356898C5.81235 0.545239 6.16542 0.826727 6.43894 1.17819C6.71246 1.52966 6.8986 1.94106 6.98205 2.37852C7.00286 2.49246 6.98843 2.61003 6.94069 2.71556C6.89295 2.82108 6.81417 2.90955 6.71487 2.96915C5.80546 3.50841 5.11382 4.34934 4.76018 5.34571C4.58585 5.82569 4.49778 6.33272 4.50002 6.84337ZM17.6063 6.50587C17.1085 5.83764 16.4442 5.31156 15.6797 4.98009C16.0082 4.67938 16.2606 4.30495 16.4161 3.88763C16.5716 3.47031 16.6258 3.02203 16.5742 2.57967C16.5226 2.13732 16.3667 1.71354 16.1193 1.34321C15.872 0.972888 15.5402 0.666606 15.1513 0.449576C14.7624 0.232546 14.3275 0.110971 13.8824 0.094859C13.4374 0.0787467 12.9948 0.168557 12.5913 0.356898C12.1877 0.545239 11.8346 0.826727 11.5611 1.17819C11.2876 1.52966 11.1014 1.94106 11.018 2.37852C10.9972 2.49246 11.0116 2.61003 11.0594 2.71556C11.1071 2.82108 11.1859 2.90955 11.2852 2.96915C12.1958 3.50703 12.8878 4.34844 13.2399 5.34571C13.4142 5.82569 13.5023 6.33272 13.5 6.84337C13.4991 6.9175 13.513 6.99107 13.5409 7.05974C13.5689 7.12841 13.6102 7.1908 13.6627 7.24322C13.7151 7.29564 13.7775 7.33704 13.8462 7.36497C13.9148 7.39291 13.9884 7.40681 14.0625 7.40587H17.1563C17.2607 7.40587 17.3631 7.37678 17.452 7.32186C17.5409 7.26694 17.6127 7.18836 17.6594 7.09492C17.7061 7.00149 17.7259 6.89689 17.7165 6.79285C17.7071 6.68881 17.6689 6.58944 17.6063 6.50587ZM11.0531 9.52227C11.613 9.09319 12.0243 8.4995 12.2293 7.82462C12.4343 7.14973 12.4227 6.42757 12.1962 5.7596C11.9697 5.09163 11.5395 4.51143 10.9663 4.1005C10.393 3.68958 9.70536 3.4686 9.00002 3.4686C8.29468 3.4686 7.60707 3.68958 7.03379 4.1005C6.46051 4.51143 6.03038 5.09163 5.80384 5.7596C5.5773 6.42757 5.56572 7.14973 5.77075 7.82462C5.97577 8.4995 6.38708 9.09319 6.9469 9.52227C5.85321 10.0078 4.96653 10.8646 4.44377 11.941C4.40218 12.0266 4.38355 12.1215 4.38971 12.2164C4.39588 12.3113 4.42662 12.403 4.47893 12.4824C4.52761 12.5639 4.59662 12.6314 4.67919 12.6782C4.76177 12.7251 4.85509 12.7497 4.95002 12.7496H13.05C13.145 12.7497 13.2383 12.7251 13.3209 12.6782C13.4034 12.6314 13.4724 12.5639 13.5211 12.4824C13.5734 12.403 13.6042 12.3113 13.6103 12.2164C13.6165 12.1215 13.5979 12.0266 13.5563 11.941C13.0335 10.8646 12.1468 10.0078 11.0531 9.52227Z" fill="#258CF4"/>
</svg>
