<svg width="25" height="18" viewBox="0 0 25 18" fill="none" xmlns="http://www.w3.org/2000/svg">
<path d="M6.25003 9.67187C6.25134 9.77483 6.23203 9.87701 6.19323 9.97239C6.15444 10.0678 6.09694 10.1544 6.02413 10.2272C5.95132 10.3 5.86468 10.3575 5.7693 10.3963C5.67392 10.4351 5.57174 10.4544 5.46878 10.4531H1.17191C1.02677 10.4519 0.88468 10.4113 0.760833 10.3357C0.636986 10.26 0.536037 10.1521 0.468781 10.0234C0.40624 9.89246 0.380472 9.74695 0.394232 9.60246C0.407993 9.45797 0.460765 9.31994 0.546906 9.20312C1.2383 8.27503 2.16088 7.54437 3.22269 7.08398C2.76643 6.66633 2.41588 6.1463 2.19988 5.56669C1.98389 4.98708 1.90863 4.36446 1.98029 3.75007C2.05195 3.13569 2.26849 2.54711 2.61209 2.03277C2.95568 1.51843 3.41651 1.09304 3.95664 0.791606C4.49677 0.490176 5.10077 0.321323 5.71891 0.298944C6.33705 0.276566 6.95168 0.401303 7.51219 0.662888C8.0727 0.924473 8.56308 1.31543 8.94297 1.80357C9.32286 2.29172 9.5814 2.86311 9.6973 3.4707C9.72619 3.62895 9.70615 3.79224 9.63984 3.9388C9.57354 4.08537 9.46413 4.20823 9.3262 4.29101C8.06314 5.03999 7.10252 6.20794 6.61136 7.59179C6.36924 8.25843 6.24691 8.96263 6.25003 9.67187ZM24.4532 9.20312C23.7618 8.27503 22.8392 7.54437 21.7774 7.08398C22.2336 6.66633 22.5842 6.1463 22.8002 5.56669C23.0162 4.98708 23.0914 4.36446 23.0198 3.75007C22.9481 3.13569 22.7316 2.54711 22.388 2.03277C22.0444 1.51843 21.5836 1.09304 21.0434 0.791606C20.5033 0.490176 19.8993 0.321323 19.2812 0.298944C18.663 0.276566 18.0484 0.401303 17.4879 0.662888C16.9274 0.924473 16.437 1.31543 16.0571 1.80357C15.6772 2.29172 15.4187 2.86311 15.3028 3.4707C15.2739 3.62895 15.2939 3.79224 15.3602 3.9388C15.4265 4.08537 15.5359 4.20823 15.6739 4.29101C16.9386 5.03807 17.8997 6.2067 18.3887 7.59179C18.6308 8.25843 18.7532 8.96263 18.75 9.67187C18.7487 9.77483 18.768 9.87701 18.8068 9.97239C18.8456 10.0678 18.9031 10.1544 18.9759 10.2272C19.0487 10.3 19.1354 10.3575 19.2308 10.3963C19.3261 10.4351 19.4283 10.4544 19.5313 10.4531H23.8282C23.9732 10.4531 24.1155 10.4127 24.2389 10.3364C24.3623 10.2602 24.462 10.151 24.5269 10.0213C24.5918 9.89149 24.6193 9.74621 24.6062 9.60171C24.5932 9.45721 24.5402 9.31919 24.4532 9.20312ZM15.3516 13.3926C16.1291 12.7966 16.7004 11.9721 16.9851 11.0347C17.2699 10.0974 17.2538 9.09438 16.9392 8.16664C16.6245 7.23891 16.0271 6.43307 15.2309 5.86234C14.4347 5.29162 13.4797 4.98469 12.5 4.98469C11.5204 4.98469 10.5654 5.29162 9.76915 5.86234C8.97293 6.43307 8.37553 7.23891 8.06089 8.16664C7.74624 9.09438 7.73017 10.0974 8.01492 11.0347C8.29968 11.9721 8.87095 12.7966 9.64847 13.3926C8.12945 14.067 6.89796 15.2569 6.17191 16.7519C6.11414 16.8708 6.08826 17.0026 6.09682 17.1344C6.10538 17.2662 6.14809 17.3936 6.22073 17.5039C6.28835 17.6171 6.38419 17.7108 6.49888 17.7758C6.61357 17.8409 6.74318 17.8751 6.87503 17.875H18.125C18.2569 17.8751 18.3865 17.8409 18.5012 17.7758C18.6159 17.7108 18.7117 17.6171 18.7793 17.5039C18.852 17.3936 18.8947 17.2662 18.9032 17.1344C18.9118 17.0026 18.8859 16.8708 18.8282 16.7519C18.1021 15.2569 16.8706 14.067 15.3516 13.3926Z" fill="currentColor"/>
</svg>
