<svg width="16" height="12" viewBox="0 0 16 12" fill="none" xmlns="http://www.w3.org/2000/svg">
<path d="M16.0003 7.49993C16.0003 7.63254 15.9477 7.75972 15.8539 7.85349C15.7601 7.94726 15.6329 7.99993 15.5003 7.99993H14.5003V8.99993C14.5003 9.13254 14.4477 9.25972 14.3539 9.35349C14.2601 9.44726 14.1329 9.49993 14.0003 9.49993C13.8677 9.49993 13.7406 9.44726 13.6468 9.35349C13.553 9.25972 13.5003 9.13254 13.5003 8.99993V7.99993H12.5003C12.3677 7.99993 12.2406 7.94726 12.1468 7.85349C12.053 7.75972 12.0003 7.63254 12.0003 7.49993C12.0003 7.36733 12.053 7.24015 12.1468 7.14638C12.2406 7.05261 12.3677 6.99993 12.5003 6.99993H13.5003V5.99993C13.5003 5.86733 13.553 5.74015 13.6468 5.64638C13.7406 5.55261 13.8677 5.49993 14.0003 5.49993C14.1329 5.49993 14.2601 5.55261 14.3539 5.64638C14.4477 5.74015 14.5003 5.86733 14.5003 5.99993V6.99993H15.5003C15.6329 6.99993 15.7601 7.05261 15.8539 7.14638C15.9477 7.24015 16.0003 7.36733 16.0003 7.49993ZM9.00659 8.84994C9.78832 8.36022 10.3895 7.62945 10.7193 6.76797C11.0492 5.9065 11.0898 4.9611 10.835 4.07451C10.5803 3.18793 10.044 2.40831 9.30709 1.85336C8.57022 1.29842 7.6728 0.998291 6.75034 0.998291C5.82787 0.998291 4.93045 1.29842 4.19359 1.85336C3.45672 2.40831 2.92041 3.18793 2.66564 4.07451C2.41087 4.9611 2.45148 5.9065 2.78132 6.76797C3.11117 7.62945 3.71235 8.36022 4.49409 8.84994C3.13105 9.27435 1.91988 10.084 1.00659 11.1812C0.94451 11.2534 0.904921 11.3421 0.892704 11.4365C0.880487 11.5309 0.896176 11.6268 0.937836 11.7124C0.977384 11.7985 1.04083 11.8713 1.12062 11.9223C1.2004 11.9732 1.29316 12.0002 1.38784 11.9999H12.1128C12.2075 12.0002 12.3003 11.9732 12.3801 11.9223C12.4598 11.8713 12.5233 11.7985 12.5628 11.7124C12.6045 11.6268 12.6202 11.5309 12.608 11.4365C12.5957 11.3421 12.5562 11.2534 12.4941 11.1812C11.5808 10.084 10.3696 9.27435 9.00659 8.84994Z" fill="#28AD4E"/>
</svg>
