<svg width="13" height="12" viewBox="0 0 13 12" fill="none" xmlns="http://www.w3.org/2000/svg">
<path d="M11.5 2.49963H1.5C1.36739 2.49963 1.24021 2.44696 1.14645 2.35319C1.05268 2.25942 1 2.13224 1 1.99963C1 1.86703 1.05268 1.73985 1.14645 1.64608C1.24021 1.55231 1.36739 1.49963 1.5 1.49963H10C10.1326 1.49963 10.2598 1.44696 10.3536 1.35319C10.4473 1.25942 10.5 1.13224 10.5 0.999634C10.5 0.867026 10.4473 0.739849 10.3536 0.64608C10.2598 0.552312 10.1326 0.499634 10 0.499634H1.5C1.10268 0.501279 0.722106 0.659843 0.441158 0.940791C0.160209 1.22174 0.00164523 1.60232 0 1.99963V9.99963C0.00164523 10.397 0.160209 10.7775 0.441158 11.0585C0.722106 11.3394 1.10268 11.498 1.5 11.4996H11.5C11.7652 11.4996 12.0196 11.3943 12.2071 11.2067C12.3946 11.0192 12.5 10.7649 12.5 10.4996V3.49963C12.5 3.23442 12.3946 2.98006 12.2071 2.79253C12.0196 2.60499 11.7652 2.49963 11.5 2.49963ZM9.25 7.74963C9.10166 7.74963 8.95666 7.70565 8.83332 7.62324C8.70999 7.54082 8.61386 7.42369 8.55709 7.28665C8.50033 7.1496 8.48547 6.9988 8.51441 6.85332C8.54335 6.70783 8.61478 6.57419 8.71967 6.4693C8.82456 6.36441 8.9582 6.29298 9.10368 6.26404C9.24917 6.23511 9.39997 6.24996 9.53701 6.30672C9.67406 6.36349 9.79119 6.45962 9.8736 6.58296C9.95601 6.70629 10 6.8513 10 6.99963C10 7.19855 9.92098 7.38931 9.78033 7.52996C9.63968 7.67062 9.44891 7.74963 9.25 7.74963Z" fill="#667DF0"/>
</svg>
